<svg xmlns="http://www.w3.org/2000/svg" xmlns:xlink="http://www.w3.org/1999/xlink" width="35.969" height="36" viewBox="0 0 35.969 36">
  <metadata><?xpacket begin="﻿" id="W5M0MpCehiHzreSzNTczkc9d"?>
<x:xmpmeta xmlns:x="adobe:ns:meta/" x:xmptk="Adobe XMP Core 5.6-c138 79.159824, 2016/09/14-01:09:01        ">
   <rdf:RDF xmlns:rdf="http://www.w3.org/1999/02/22-rdf-syntax-ns#">
      <rdf:Description rdf:about=""/>
   </rdf:RDF>
</x:xmpmeta>
                                                                                                    
                                                                                                    
                                                                                                    
                                                                                                    
                                                                                                    
                                                                                                    
                                                                                                    
                                                                                                    
                                                                                                    
                                                                                                    
                                                                                                    
                                                                                                    
                                                                                                    
                                                                                                    
                                                                                                    
                                                                                                    
                                                                                                    
                                                                                                    
                                                                                                    
                                                                                                    
                           
<?xpacket end="w"?></metadata>
<defs>
    <style>
      .cls-1 {
        fill-rule: evenodd;
        filter: url(#filter);
      }
    </style>
    <filter id="filter" x="753.031" y="45" width="35.969" height="36" filterUnits="userSpaceOnUse">
      <feFlood result="flood" flood-color="#cacaca"/>
      <feComposite result="composite" operator="in" in2="SourceGraphic"/>
      <feBlend result="blend" in2="SourceGraphic"/>
    </filter>
  </defs>
  <path class="cls-1" d="M788.994,63.535a1.447,1.447,0,1,1-2.893-.064c0.007-.308,0-0.619-0.008-0.927a1.447,1.447,0,1,1,2.892-.115C789,62.8,789,63.168,788.994,63.535Zm-1.828-4.251a1.445,1.445,0,0,1-1.828-.926c-0.1-.292-0.2-0.586-0.316-0.872a1.46,1.46,0,0,1,.806-1.895,1.444,1.444,0,0,1,1.881.812c0.135,0.341.262,0.69,0.376,1.038A1.461,1.461,0,0,1,787.166,59.284Zm-3.585-6.861-4.911.443c-0.55.05-.744-0.284-0.43-0.742l1.131-1.646a15.036,15.036,0,0,0-16.954.137l-0.052.036a15.119,15.119,0,0,0-3.711,3.72,15.3,15.3,0,0,0,3.648,21.2,15.476,15.476,0,0,0,1.44.906l0,0c0.269,0.147.545,0.288,0.823,0.42l0.041,0.022a14.855,14.855,0,0,0,3.712,1.188,1.458,1.458,0,0,1-.511,2.87,17.776,17.776,0,0,1-7.176-3.025,18.271,18.271,0,0,1-2.3-1.94L758.323,76l-0.019-.019a18.039,18.039,0,0,1-5.036-9.756q-0.094-.552-0.154-1.1c0-.024-0.009-0.046-0.011-0.07-0.04-.365-0.068-0.736-0.085-1.1,0-.013,0-0.025,0-0.037a18.079,18.079,0,0,1,2.852-10.6c0.014-.023.025-0.047,0.041-0.07,0.123-.191.251-0.383,0.382-0.569,0.08-.114.161-0.228,0.243-0.34,0.02-.027.041-0.051,0.062-0.076a17.835,17.835,0,0,1,9.9-6.68l0.052-.015,0.009,0q0.677-.173,1.371-0.294a17.765,17.765,0,0,1,13.1,2.805l1.133-1.65c0.315-.458.693-0.394,0.84,0.143l1.319,4.786A0.814,0.814,0,0,1,783.581,52.423Zm-9.845,25.671c0.3-.056.6-0.122,0.9-0.2a1.457,1.457,0,0,1,.7,2.829c-0.354.089-.714,0.168-1.072,0.234a1.436,1.436,0,0,1-1.1-.242A1.461,1.461,0,0,1,773.736,78.094Zm6.409-8.122a1.154,1.154,0,0,1-.536-0.132L768.94,64.284V52.534a1.171,1.171,0,1,1,2.341,0V62.849l9.4,4.9a1.183,1.183,0,0,1,.5,1.589A1.169,1.169,0,0,1,780.145,69.972ZM778.554,76.3c0.265-.154.529-0.318,0.784-0.488a1.441,1.441,0,0,1,2,.413,1.464,1.464,0,0,1-.409,2.02c-0.3.2-.618,0.4-0.934,0.581a1.441,1.441,0,0,1-1.976-.534A1.462,1.462,0,0,1,778.554,76.3Zm4.521-4.031a1.439,1.439,0,0,1,2.026-.292,1.465,1.465,0,0,1,.289,2.041c-0.219.294-.45,0.585-0.686,0.865a1.44,1.44,0,0,1-1.934.247,1.221,1.221,0,0,1-.106-0.082A1.465,1.465,0,0,1,782.5,73C782.7,72.763,782.891,72.52,783.075,72.273Zm2.038-3.729c0.109-.289.21-0.584,0.3-0.877a1.445,1.445,0,0,1,1.814-.955,1.461,1.461,0,0,1,.948,1.827c-0.109.349-.23,0.7-0.36,1.043a1.443,1.443,0,0,1-1.867.843A1.454,1.454,0,0,1,785.113,68.544Z" transform="translate(-753.031 -45)"/>
</svg>
